<mxfile host="app.diagrams.net" agent="Mozilla/5.0 (Macintosh; Intel Mac OS X 10_15_7) AppleWebKit/537.36 (KHTML, like Gecko) Chrome/130.0.0.0 Safari/537.36" version="24.8.6">
  <diagram name="Page-1" id="BHE9aYUoazxJGYG2A9PV">
    <mxGraphModel dx="2902" dy="2288" grid="1" gridSize="10" guides="1" tooltips="1" connect="1" arrows="1" fold="1" page="1" pageScale="1" pageWidth="850" pageHeight="1100" math="0" shadow="0">
      <root>
        <mxCell id="0" />
        <mxCell id="1" parent="0" />
        <mxCell id="t662seWFUNlRB6uKf4IR-15" style="edgeStyle=orthogonalEdgeStyle;rounded=0;orthogonalLoop=1;jettySize=auto;html=1;exitX=0.5;exitY=0;exitDx=0;exitDy=0;exitPerimeter=0;entryX=0;entryY=0.5;entryDx=0;entryDy=0;" edge="1" parent="1" source="t662seWFUNlRB6uKf4IR-1" target="t662seWFUNlRB6uKf4IR-14">
          <mxGeometry relative="1" as="geometry" />
        </mxCell>
        <mxCell id="t662seWFUNlRB6uKf4IR-1" value="Parking Attendant" style="shape=umlActor;verticalLabelPosition=bottom;verticalAlign=top;html=1;outlineConnect=0;" vertex="1" parent="1">
          <mxGeometry x="30" y="290" width="30" height="60" as="geometry" />
        </mxCell>
        <mxCell id="t662seWFUNlRB6uKf4IR-17" style="edgeStyle=orthogonalEdgeStyle;rounded=0;orthogonalLoop=1;jettySize=auto;html=1;exitX=1;exitY=0.3333333333333333;exitDx=0;exitDy=0;exitPerimeter=0;entryX=0;entryY=0.5;entryDx=0;entryDy=0;" edge="1" parent="1" source="t662seWFUNlRB6uKf4IR-2" target="t662seWFUNlRB6uKf4IR-16">
          <mxGeometry relative="1" as="geometry" />
        </mxCell>
        <mxCell id="t662seWFUNlRB6uKf4IR-19" style="edgeStyle=orthogonalEdgeStyle;rounded=0;orthogonalLoop=1;jettySize=auto;html=1;exitX=1;exitY=0.3333333333333333;exitDx=0;exitDy=0;exitPerimeter=0;" edge="1" parent="1" source="t662seWFUNlRB6uKf4IR-2" target="t662seWFUNlRB6uKf4IR-18">
          <mxGeometry relative="1" as="geometry" />
        </mxCell>
        <mxCell id="t662seWFUNlRB6uKf4IR-21" style="edgeStyle=orthogonalEdgeStyle;rounded=0;orthogonalLoop=1;jettySize=auto;html=1;exitX=1;exitY=0.3333333333333333;exitDx=0;exitDy=0;exitPerimeter=0;entryX=0;entryY=0.5;entryDx=0;entryDy=0;" edge="1" parent="1" source="t662seWFUNlRB6uKf4IR-2" target="t662seWFUNlRB6uKf4IR-20">
          <mxGeometry relative="1" as="geometry" />
        </mxCell>
        <mxCell id="t662seWFUNlRB6uKf4IR-2" value="Customer" style="shape=umlActor;verticalLabelPosition=bottom;verticalAlign=top;html=1;outlineConnect=0;" vertex="1" parent="1">
          <mxGeometry x="30" y="470" width="30" height="60" as="geometry" />
        </mxCell>
        <mxCell id="t662seWFUNlRB6uKf4IR-10" style="edgeStyle=orthogonalEdgeStyle;rounded=0;orthogonalLoop=1;jettySize=auto;html=1;exitX=0;exitY=0.3333333333333333;exitDx=0;exitDy=0;exitPerimeter=0;entryX=1;entryY=0.5;entryDx=0;entryDy=0;" edge="1" parent="1" source="t662seWFUNlRB6uKf4IR-3" target="t662seWFUNlRB6uKf4IR-9">
          <mxGeometry relative="1" as="geometry" />
        </mxCell>
        <mxCell id="t662seWFUNlRB6uKf4IR-11" style="edgeStyle=orthogonalEdgeStyle;rounded=0;orthogonalLoop=1;jettySize=auto;html=1;exitX=0.5;exitY=0;exitDx=0;exitDy=0;exitPerimeter=0;entryX=1;entryY=0.5;entryDx=0;entryDy=0;" edge="1" parent="1" source="t662seWFUNlRB6uKf4IR-3" target="t662seWFUNlRB6uKf4IR-8">
          <mxGeometry relative="1" as="geometry" />
        </mxCell>
        <mxCell id="t662seWFUNlRB6uKf4IR-12" style="edgeStyle=orthogonalEdgeStyle;rounded=0;orthogonalLoop=1;jettySize=auto;html=1;exitX=0.5;exitY=0;exitDx=0;exitDy=0;exitPerimeter=0;entryX=1;entryY=0.5;entryDx=0;entryDy=0;" edge="1" parent="1" source="t662seWFUNlRB6uKf4IR-3" target="t662seWFUNlRB6uKf4IR-7">
          <mxGeometry relative="1" as="geometry" />
        </mxCell>
        <mxCell id="t662seWFUNlRB6uKf4IR-13" style="edgeStyle=orthogonalEdgeStyle;rounded=0;orthogonalLoop=1;jettySize=auto;html=1;exitX=0.5;exitY=0;exitDx=0;exitDy=0;exitPerimeter=0;entryX=1;entryY=0.5;entryDx=0;entryDy=0;" edge="1" parent="1" source="t662seWFUNlRB6uKf4IR-3" target="t662seWFUNlRB6uKf4IR-6">
          <mxGeometry relative="1" as="geometry" />
        </mxCell>
        <mxCell id="t662seWFUNlRB6uKf4IR-3" value="Admin" style="shape=umlActor;verticalLabelPosition=bottom;verticalAlign=top;html=1;outlineConnect=0;" vertex="1" parent="1">
          <mxGeometry x="520" y="290" width="30" height="60" as="geometry" />
        </mxCell>
        <mxCell id="t662seWFUNlRB6uKf4IR-26" style="edgeStyle=orthogonalEdgeStyle;rounded=0;orthogonalLoop=1;jettySize=auto;html=1;exitX=0.5;exitY=0;exitDx=0;exitDy=0;exitPerimeter=0;entryX=1;entryY=0.5;entryDx=0;entryDy=0;" edge="1" parent="1" source="t662seWFUNlRB6uKf4IR-5" target="t662seWFUNlRB6uKf4IR-22">
          <mxGeometry relative="1" as="geometry" />
        </mxCell>
        <mxCell id="t662seWFUNlRB6uKf4IR-27" style="edgeStyle=orthogonalEdgeStyle;rounded=0;orthogonalLoop=1;jettySize=auto;html=1;exitX=0.25;exitY=0.1;exitDx=0;exitDy=0;exitPerimeter=0;entryX=1;entryY=0.5;entryDx=0;entryDy=0;" edge="1" parent="1" source="t662seWFUNlRB6uKf4IR-5" target="t662seWFUNlRB6uKf4IR-23">
          <mxGeometry relative="1" as="geometry" />
        </mxCell>
        <mxCell id="t662seWFUNlRB6uKf4IR-28" style="edgeStyle=orthogonalEdgeStyle;rounded=0;orthogonalLoop=1;jettySize=auto;html=1;exitX=0.5;exitY=0.5;exitDx=0;exitDy=0;exitPerimeter=0;" edge="1" parent="1" source="t662seWFUNlRB6uKf4IR-5" target="t662seWFUNlRB6uKf4IR-24">
          <mxGeometry relative="1" as="geometry" />
        </mxCell>
        <mxCell id="t662seWFUNlRB6uKf4IR-29" style="edgeStyle=orthogonalEdgeStyle;rounded=0;orthogonalLoop=1;jettySize=auto;html=1;exitX=0.5;exitY=0.5;exitDx=0;exitDy=0;exitPerimeter=0;entryX=1;entryY=0.5;entryDx=0;entryDy=0;" edge="1" parent="1" source="t662seWFUNlRB6uKf4IR-5" target="t662seWFUNlRB6uKf4IR-25">
          <mxGeometry relative="1" as="geometry" />
        </mxCell>
        <mxCell id="t662seWFUNlRB6uKf4IR-5" value="System" style="shape=umlActor;verticalLabelPosition=bottom;verticalAlign=top;html=1;outlineConnect=0;" vertex="1" parent="1">
          <mxGeometry x="520" y="460" width="30" height="60" as="geometry" />
        </mxCell>
        <mxCell id="t662seWFUNlRB6uKf4IR-6" value="Add parking spot" style="ellipse;whiteSpace=wrap;html=1;" vertex="1" parent="1">
          <mxGeometry x="310" y="-110" width="105" height="50" as="geometry" />
        </mxCell>
        <mxCell id="t662seWFUNlRB6uKf4IR-7" value="Add parking floor" style="ellipse;whiteSpace=wrap;html=1;" vertex="1" parent="1">
          <mxGeometry x="310" y="-30" width="105" height="50" as="geometry" />
        </mxCell>
        <mxCell id="t662seWFUNlRB6uKf4IR-8" value="Add parking attendant" style="ellipse;whiteSpace=wrap;html=1;" vertex="1" parent="1">
          <mxGeometry x="310" y="50" width="105" height="50" as="geometry" />
        </mxCell>
        <mxCell id="t662seWFUNlRB6uKf4IR-9" value="Add system" style="ellipse;whiteSpace=wrap;html=1;" vertex="1" parent="1">
          <mxGeometry x="310" y="130" width="105" height="50" as="geometry" />
        </mxCell>
        <mxCell id="t662seWFUNlRB6uKf4IR-14" value="Cash payment" style="ellipse;whiteSpace=wrap;html=1;" vertex="1" parent="1">
          <mxGeometry x="130" y="128.75" width="80" height="52.5" as="geometry" />
        </mxCell>
        <mxCell id="t662seWFUNlRB6uKf4IR-16" value="GetTicket" style="ellipse;whiteSpace=wrap;html=1;" vertex="1" parent="1">
          <mxGeometry x="120" y="380" width="110" height="50" as="geometry" />
        </mxCell>
        <mxCell id="t662seWFUNlRB6uKf4IR-18" value="ScanTicket" style="ellipse;whiteSpace=wrap;html=1;" vertex="1" parent="1">
          <mxGeometry x="120" y="450" width="110" height="50" as="geometry" />
        </mxCell>
        <mxCell id="t662seWFUNlRB6uKf4IR-20" value="Payment" style="ellipse;whiteSpace=wrap;html=1;" vertex="1" parent="1">
          <mxGeometry x="115" y="525" width="110" height="50" as="geometry" />
        </mxCell>
        <mxCell id="t662seWFUNlRB6uKf4IR-22" value="Assign parking spot&lt;div&gt;to ticket&lt;/div&gt;" style="ellipse;whiteSpace=wrap;html=1;" vertex="1" parent="1">
          <mxGeometry x="340" y="380" width="110" height="45" as="geometry" />
        </mxCell>
        <mxCell id="t662seWFUNlRB6uKf4IR-23" value="Remove vehicle from spot" style="ellipse;whiteSpace=wrap;html=1;" vertex="1" parent="1">
          <mxGeometry x="340" y="450" width="110" height="45" as="geometry" />
        </mxCell>
        <mxCell id="t662seWFUNlRB6uKf4IR-24" value="Show floor is full slot" style="ellipse;whiteSpace=wrap;html=1;" vertex="1" parent="1">
          <mxGeometry x="340" y="525" width="110" height="45" as="geometry" />
        </mxCell>
        <mxCell id="t662seWFUNlRB6uKf4IR-25" value="Show available" style="ellipse;whiteSpace=wrap;html=1;" vertex="1" parent="1">
          <mxGeometry x="350" y="600" width="110" height="45" as="geometry" />
        </mxCell>
        <mxCell id="t662seWFUNlRB6uKf4IR-33" value="ParkingLot" style="swimlane;fontStyle=1;align=center;verticalAlign=top;childLayout=stackLayout;horizontal=1;startSize=26;horizontalStack=0;resizeParent=1;resizeParentMax=0;resizeLast=0;collapsible=1;marginBottom=0;whiteSpace=wrap;html=1;" vertex="1" parent="1">
          <mxGeometry x="-260" y="1090" width="210" height="170" as="geometry" />
        </mxCell>
        <mxCell id="t662seWFUNlRB6uKf4IR-34" value="+ id: number&lt;div&gt;+ address: string&lt;/div&gt;" style="text;strokeColor=none;fillColor=none;align=left;verticalAlign=top;spacingLeft=4;spacingRight=4;overflow=hidden;rotatable=0;points=[[0,0.5],[1,0.5]];portConstraint=eastwest;whiteSpace=wrap;html=1;" vertex="1" parent="t662seWFUNlRB6uKf4IR-33">
          <mxGeometry y="26" width="210" height="54" as="geometry" />
        </mxCell>
        <mxCell id="t662seWFUNlRB6uKf4IR-35" value="" style="line;strokeWidth=1;fillColor=none;align=left;verticalAlign=middle;spacingTop=-1;spacingLeft=3;spacingRight=3;rotatable=0;labelPosition=right;points=[];portConstraint=eastwest;strokeColor=inherit;" vertex="1" parent="t662seWFUNlRB6uKf4IR-33">
          <mxGeometry y="80" width="210" height="8" as="geometry" />
        </mxCell>
        <mxCell id="t662seWFUNlRB6uKf4IR-36" value="+ isFull() bool&lt;div&gt;+ getNewTicket() Ticket&lt;/div&gt;&lt;div&gt;+ addNewPanelEntrance() void&lt;/div&gt;&lt;div&gt;+ addNewPanelExit() void&lt;/div&gt;" style="text;strokeColor=none;fillColor=none;align=left;verticalAlign=top;spacingLeft=4;spacingRight=4;overflow=hidden;rotatable=0;points=[[0,0.5],[1,0.5]];portConstraint=eastwest;whiteSpace=wrap;html=1;" vertex="1" parent="t662seWFUNlRB6uKf4IR-33">
          <mxGeometry y="88" width="210" height="82" as="geometry" />
        </mxCell>
        <mxCell id="t662seWFUNlRB6uKf4IR-43" value="Customer" style="swimlane;fontStyle=1;align=center;verticalAlign=top;childLayout=stackLayout;horizontal=1;startSize=26;horizontalStack=0;resizeParent=1;resizeParentMax=0;resizeLast=0;collapsible=1;marginBottom=0;whiteSpace=wrap;html=1;" vertex="1" parent="1">
          <mxGeometry x="100" y="1110" width="160" height="150" as="geometry" />
        </mxCell>
        <mxCell id="t662seWFUNlRB6uKf4IR-44" value="+ id: number&lt;div&gt;+ name: string&lt;/div&gt;&lt;div&gt;.. etc&lt;/div&gt;" style="text;strokeColor=none;fillColor=none;align=left;verticalAlign=top;spacingLeft=4;spacingRight=4;overflow=hidden;rotatable=0;points=[[0,0.5],[1,0.5]];portConstraint=eastwest;whiteSpace=wrap;html=1;" vertex="1" parent="t662seWFUNlRB6uKf4IR-43">
          <mxGeometry y="26" width="160" height="64" as="geometry" />
        </mxCell>
        <mxCell id="t662seWFUNlRB6uKf4IR-45" value="" style="line;strokeWidth=1;fillColor=none;align=left;verticalAlign=middle;spacingTop=-1;spacingLeft=3;spacingRight=3;rotatable=0;labelPosition=right;points=[];portConstraint=eastwest;strokeColor=inherit;" vertex="1" parent="t662seWFUNlRB6uKf4IR-43">
          <mxGeometry y="90" width="160" height="8" as="geometry" />
        </mxCell>
        <mxCell id="t662seWFUNlRB6uKf4IR-46" value="+ scanTicket(): void&lt;div&gt;+ processPayment(): void&lt;/div&gt;" style="text;strokeColor=none;fillColor=none;align=left;verticalAlign=top;spacingLeft=4;spacingRight=4;overflow=hidden;rotatable=0;points=[[0,0.5],[1,0.5]];portConstraint=eastwest;whiteSpace=wrap;html=1;" vertex="1" parent="t662seWFUNlRB6uKf4IR-43">
          <mxGeometry y="98" width="160" height="52" as="geometry" />
        </mxCell>
        <mxCell id="t662seWFUNlRB6uKf4IR-72" value="Vehicle" style="swimlane;fontStyle=1;align=center;verticalAlign=top;childLayout=stackLayout;horizontal=1;startSize=26;horizontalStack=0;resizeParent=1;resizeParentMax=0;resizeLast=0;collapsible=1;marginBottom=0;whiteSpace=wrap;html=1;" vertex="1" parent="1">
          <mxGeometry x="100" y="1350" width="160" height="134" as="geometry" />
        </mxCell>
        <mxCell id="t662seWFUNlRB6uKf4IR-73" value="&lt;div&gt;+ id: number&lt;/div&gt;+ type: VehicleType&lt;br&gt;+ licenseNumber: string&lt;div&gt;+ ticket_number: number&lt;/div&gt;" style="text;strokeColor=none;fillColor=none;align=left;verticalAlign=top;spacingLeft=4;spacingRight=4;overflow=hidden;rotatable=0;points=[[0,0.5],[1,0.5]];portConstraint=eastwest;whiteSpace=wrap;html=1;" vertex="1" parent="t662seWFUNlRB6uKf4IR-72">
          <mxGeometry y="26" width="160" height="74" as="geometry" />
        </mxCell>
        <mxCell id="t662seWFUNlRB6uKf4IR-74" value="" style="line;strokeWidth=1;fillColor=none;align=left;verticalAlign=middle;spacingTop=-1;spacingLeft=3;spacingRight=3;rotatable=0;labelPosition=right;points=[];portConstraint=eastwest;strokeColor=inherit;" vertex="1" parent="t662seWFUNlRB6uKf4IR-72">
          <mxGeometry y="100" width="160" height="8" as="geometry" />
        </mxCell>
        <mxCell id="t662seWFUNlRB6uKf4IR-75" value="+ assignTicket(): void" style="text;strokeColor=none;fillColor=none;align=left;verticalAlign=top;spacingLeft=4;spacingRight=4;overflow=hidden;rotatable=0;points=[[0,0.5],[1,0.5]];portConstraint=eastwest;whiteSpace=wrap;html=1;" vertex="1" parent="t662seWFUNlRB6uKf4IR-72">
          <mxGeometry y="108" width="160" height="26" as="geometry" />
        </mxCell>
        <mxCell id="t662seWFUNlRB6uKf4IR-101" style="edgeStyle=orthogonalEdgeStyle;rounded=0;orthogonalLoop=1;jettySize=auto;html=1;exitX=0.75;exitY=0;exitDx=0;exitDy=0;entryX=0.5;entryY=0;entryDx=0;entryDy=0;" edge="1" parent="1" source="t662seWFUNlRB6uKf4IR-76" target="t662seWFUNlRB6uKf4IR-33">
          <mxGeometry relative="1" as="geometry" />
        </mxCell>
        <mxCell id="t662seWFUNlRB6uKf4IR-76" value="Ticket" style="swimlane;fontStyle=1;align=center;verticalAlign=top;childLayout=stackLayout;horizontal=1;startSize=26;horizontalStack=0;resizeParent=1;resizeParentMax=0;resizeLast=0;collapsible=1;marginBottom=0;whiteSpace=wrap;html=1;" vertex="1" parent="1">
          <mxGeometry x="470" y="1260" width="160" height="138" as="geometry" />
        </mxCell>
        <mxCell id="t662seWFUNlRB6uKf4IR-77" value="+vehicle_id: number&lt;div&gt;+ start_at: datetime&lt;/div&gt;&lt;div&gt;+ customer_id: number&lt;/div&gt;&lt;div&gt;+ paid_trans_id: number&lt;/div&gt;&lt;div&gt;+ spot_id: number&lt;/div&gt;&lt;div&gt;+ status: ParkingStatus&lt;/div&gt;" style="text;strokeColor=none;fillColor=none;align=left;verticalAlign=top;spacingLeft=4;spacingRight=4;overflow=hidden;rotatable=0;points=[[0,0.5],[1,0.5]];portConstraint=eastwest;whiteSpace=wrap;html=1;" vertex="1" parent="t662seWFUNlRB6uKf4IR-76">
          <mxGeometry y="26" width="160" height="104" as="geometry" />
        </mxCell>
        <mxCell id="t662seWFUNlRB6uKf4IR-78" value="" style="line;strokeWidth=1;fillColor=none;align=left;verticalAlign=middle;spacingTop=-1;spacingLeft=3;spacingRight=3;rotatable=0;labelPosition=right;points=[];portConstraint=eastwest;strokeColor=inherit;" vertex="1" parent="t662seWFUNlRB6uKf4IR-76">
          <mxGeometry y="130" width="160" height="8" as="geometry" />
        </mxCell>
        <mxCell id="t662seWFUNlRB6uKf4IR-80" style="rounded=0;orthogonalLoop=1;jettySize=auto;html=1;exitX=1;exitY=0.5;exitDx=0;exitDy=0;entryX=0;entryY=0.5;entryDx=0;entryDy=0;" edge="1" parent="1" source="t662seWFUNlRB6uKf4IR-73" target="t662seWFUNlRB6uKf4IR-77">
          <mxGeometry relative="1" as="geometry" />
        </mxCell>
        <mxCell id="t662seWFUNlRB6uKf4IR-81" value="has-a" style="text;html=1;align=center;verticalAlign=middle;resizable=0;points=[];autosize=1;strokeColor=none;fillColor=none;" vertex="1" parent="1">
          <mxGeometry x="330" y="1345" width="50" height="30" as="geometry" />
        </mxCell>
        <mxCell id="t662seWFUNlRB6uKf4IR-82" value="Transaction" style="swimlane;fontStyle=1;align=center;verticalAlign=top;childLayout=stackLayout;horizontal=1;startSize=26;horizontalStack=0;resizeParent=1;resizeParentMax=0;resizeLast=0;collapsible=1;marginBottom=0;whiteSpace=wrap;html=1;" vertex="1" parent="1">
          <mxGeometry x="480" y="1560" width="160" height="134" as="geometry" />
        </mxCell>
        <mxCell id="t662seWFUNlRB6uKf4IR-83" value="+ id: number&lt;div&gt;+ amount: number&lt;/div&gt;&lt;div&gt;+ customer:id: number&lt;/div&gt;&lt;div&gt;+ type: PaymentType&lt;/div&gt;&lt;div&gt;+ status: PaymentStatus&lt;/div&gt;&lt;div&gt;+ payed_at: datetime&lt;/div&gt;" style="text;strokeColor=none;fillColor=none;align=left;verticalAlign=top;spacingLeft=4;spacingRight=4;overflow=hidden;rotatable=0;points=[[0,0.5],[1,0.5]];portConstraint=eastwest;whiteSpace=wrap;html=1;" vertex="1" parent="t662seWFUNlRB6uKf4IR-82">
          <mxGeometry y="26" width="160" height="74" as="geometry" />
        </mxCell>
        <mxCell id="t662seWFUNlRB6uKf4IR-84" value="" style="line;strokeWidth=1;fillColor=none;align=left;verticalAlign=middle;spacingTop=-1;spacingLeft=3;spacingRight=3;rotatable=0;labelPosition=right;points=[];portConstraint=eastwest;strokeColor=inherit;" vertex="1" parent="t662seWFUNlRB6uKf4IR-82">
          <mxGeometry y="100" width="160" height="8" as="geometry" />
        </mxCell>
        <mxCell id="t662seWFUNlRB6uKf4IR-85" value="+ initializeTrans(): void" style="text;strokeColor=none;fillColor=none;align=left;verticalAlign=top;spacingLeft=4;spacingRight=4;overflow=hidden;rotatable=0;points=[[0,0.5],[1,0.5]];portConstraint=eastwest;whiteSpace=wrap;html=1;" vertex="1" parent="t662seWFUNlRB6uKf4IR-82">
          <mxGeometry y="108" width="160" height="26" as="geometry" />
        </mxCell>
        <mxCell id="t662seWFUNlRB6uKf4IR-86" style="edgeStyle=orthogonalEdgeStyle;rounded=0;orthogonalLoop=1;jettySize=auto;html=1;exitX=0.494;exitY=0.875;exitDx=0;exitDy=0;entryX=1;entryY=0.5;entryDx=0;entryDy=0;exitPerimeter=0;" edge="1" parent="1" source="t662seWFUNlRB6uKf4IR-78" target="t662seWFUNlRB6uKf4IR-83">
          <mxGeometry relative="1" as="geometry">
            <mxPoint x="630" y="1429" as="sourcePoint" />
          </mxGeometry>
        </mxCell>
        <mxCell id="t662seWFUNlRB6uKf4IR-87" value="ParkingSpot" style="swimlane;fontStyle=1;align=center;verticalAlign=top;childLayout=stackLayout;horizontal=1;startSize=26;horizontalStack=0;resizeParent=1;resizeParentMax=0;resizeLast=0;collapsible=1;marginBottom=0;whiteSpace=wrap;html=1;" vertex="1" parent="1">
          <mxGeometry x="-250" y="1550" width="160" height="154" as="geometry" />
        </mxCell>
        <mxCell id="t662seWFUNlRB6uKf4IR-88" value="+ id: number&lt;div&gt;+ is_free: bool&amp;nbsp;&lt;/div&gt;&lt;div&gt;&amp;nbsp;+ fee_rate: fee_id&lt;/div&gt;&lt;div&gt;+ floor_id: number&lt;/div&gt;&lt;div&gt;+ parking_vehicle: number&lt;/div&gt;" style="text;strokeColor=none;fillColor=none;align=left;verticalAlign=top;spacingLeft=4;spacingRight=4;overflow=hidden;rotatable=0;points=[[0,0.5],[1,0.5]];portConstraint=eastwest;whiteSpace=wrap;html=1;" vertex="1" parent="t662seWFUNlRB6uKf4IR-87">
          <mxGeometry y="26" width="160" height="94" as="geometry" />
        </mxCell>
        <mxCell id="t662seWFUNlRB6uKf4IR-89" value="" style="line;strokeWidth=1;fillColor=none;align=left;verticalAlign=middle;spacingTop=-1;spacingLeft=3;spacingRight=3;rotatable=0;labelPosition=right;points=[];portConstraint=eastwest;strokeColor=inherit;" vertex="1" parent="t662seWFUNlRB6uKf4IR-87">
          <mxGeometry y="120" width="160" height="8" as="geometry" />
        </mxCell>
        <mxCell id="t662seWFUNlRB6uKf4IR-90" value="+isFree(): bool" style="text;strokeColor=none;fillColor=none;align=left;verticalAlign=top;spacingLeft=4;spacingRight=4;overflow=hidden;rotatable=0;points=[[0,0.5],[1,0.5]];portConstraint=eastwest;whiteSpace=wrap;html=1;" vertex="1" parent="t662seWFUNlRB6uKf4IR-87">
          <mxGeometry y="128" width="160" height="26" as="geometry" />
        </mxCell>
        <mxCell id="t662seWFUNlRB6uKf4IR-91" style="edgeStyle=orthogonalEdgeStyle;rounded=0;orthogonalLoop=1;jettySize=auto;html=1;exitX=1;exitY=0.5;exitDx=0;exitDy=0;entryX=0.063;entryY=0.635;entryDx=0;entryDy=0;entryPerimeter=0;" edge="1" parent="1" source="t662seWFUNlRB6uKf4IR-88" target="t662seWFUNlRB6uKf4IR-73">
          <mxGeometry relative="1" as="geometry" />
        </mxCell>
        <mxCell id="t662seWFUNlRB6uKf4IR-92" value="has-a" style="edgeLabel;html=1;align=center;verticalAlign=middle;resizable=0;points=[];" vertex="1" connectable="0" parent="t662seWFUNlRB6uKf4IR-91">
          <mxGeometry x="-0.0861" y="5" relative="1" as="geometry">
            <mxPoint as="offset" />
          </mxGeometry>
        </mxCell>
        <mxCell id="t662seWFUNlRB6uKf4IR-93" style="edgeStyle=orthogonalEdgeStyle;rounded=0;orthogonalLoop=1;jettySize=auto;html=1;exitX=1;exitY=0.5;exitDx=0;exitDy=0;" edge="1" parent="1" source="t662seWFUNlRB6uKf4IR-44" target="t662seWFUNlRB6uKf4IR-76">
          <mxGeometry relative="1" as="geometry" />
        </mxCell>
        <mxCell id="t662seWFUNlRB6uKf4IR-94" value="scan/process payment" style="edgeLabel;html=1;align=center;verticalAlign=middle;resizable=0;points=[];" vertex="1" connectable="0" parent="t662seWFUNlRB6uKf4IR-93">
          <mxGeometry x="-0.2827" y="1" relative="1" as="geometry">
            <mxPoint y="1" as="offset" />
          </mxGeometry>
        </mxCell>
        <mxCell id="t662seWFUNlRB6uKf4IR-95" value="ParkingAttendant" style="swimlane;fontStyle=1;align=center;verticalAlign=top;childLayout=stackLayout;horizontal=1;startSize=26;horizontalStack=0;resizeParent=1;resizeParentMax=0;resizeLast=0;collapsible=1;marginBottom=0;whiteSpace=wrap;html=1;" vertex="1" parent="1">
          <mxGeometry x="780" y="1080" width="160" height="86" as="geometry" />
        </mxCell>
        <mxCell id="t662seWFUNlRB6uKf4IR-96" value="+ field: type" style="text;strokeColor=none;fillColor=none;align=left;verticalAlign=top;spacingLeft=4;spacingRight=4;overflow=hidden;rotatable=0;points=[[0,0.5],[1,0.5]];portConstraint=eastwest;whiteSpace=wrap;html=1;" vertex="1" parent="t662seWFUNlRB6uKf4IR-95">
          <mxGeometry y="26" width="160" height="26" as="geometry" />
        </mxCell>
        <mxCell id="t662seWFUNlRB6uKf4IR-97" value="" style="line;strokeWidth=1;fillColor=none;align=left;verticalAlign=middle;spacingTop=-1;spacingLeft=3;spacingRight=3;rotatable=0;labelPosition=right;points=[];portConstraint=eastwest;strokeColor=inherit;" vertex="1" parent="t662seWFUNlRB6uKf4IR-95">
          <mxGeometry y="52" width="160" height="8" as="geometry" />
        </mxCell>
        <mxCell id="t662seWFUNlRB6uKf4IR-98" value="+ method(type): type" style="text;strokeColor=none;fillColor=none;align=left;verticalAlign=top;spacingLeft=4;spacingRight=4;overflow=hidden;rotatable=0;points=[[0,0.5],[1,0.5]];portConstraint=eastwest;whiteSpace=wrap;html=1;" vertex="1" parent="t662seWFUNlRB6uKf4IR-95">
          <mxGeometry y="60" width="160" height="26" as="geometry" />
        </mxCell>
        <mxCell id="t662seWFUNlRB6uKf4IR-99" style="edgeStyle=orthogonalEdgeStyle;rounded=0;orthogonalLoop=1;jettySize=auto;html=1;exitX=1;exitY=0.5;exitDx=0;exitDy=0;entryX=0;entryY=0.5;entryDx=0;entryDy=0;" edge="1" parent="1" source="t662seWFUNlRB6uKf4IR-77" target="t662seWFUNlRB6uKf4IR-96">
          <mxGeometry relative="1" as="geometry" />
        </mxCell>
        <mxCell id="t662seWFUNlRB6uKf4IR-100" value="process ticket" style="text;html=1;align=center;verticalAlign=middle;resizable=0;points=[];autosize=1;strokeColor=none;fillColor=none;" vertex="1" parent="1">
          <mxGeometry x="650" y="1198" width="100" height="30" as="geometry" />
        </mxCell>
        <mxCell id="t662seWFUNlRB6uKf4IR-102" value="ParkingFeeRate" style="swimlane;fontStyle=1;align=center;verticalAlign=top;childLayout=stackLayout;horizontal=1;startSize=26;horizontalStack=0;resizeParent=1;resizeParentMax=0;resizeLast=0;collapsible=1;marginBottom=0;whiteSpace=wrap;html=1;" vertex="1" parent="1">
          <mxGeometry x="-550" y="1110" width="160" height="110" as="geometry" />
        </mxCell>
        <mxCell id="t662seWFUNlRB6uKf4IR-103" value="+ id: number" style="text;strokeColor=none;fillColor=none;align=left;verticalAlign=top;spacingLeft=4;spacingRight=4;overflow=hidden;rotatable=0;points=[[0,0.5],[1,0.5]];portConstraint=eastwest;whiteSpace=wrap;html=1;" vertex="1" parent="t662seWFUNlRB6uKf4IR-102">
          <mxGeometry y="26" width="160" height="26" as="geometry" />
        </mxCell>
        <mxCell id="t662seWFUNlRB6uKf4IR-104" value="" style="line;strokeWidth=1;fillColor=none;align=left;verticalAlign=middle;spacingTop=-1;spacingLeft=3;spacingRight=3;rotatable=0;labelPosition=right;points=[];portConstraint=eastwest;strokeColor=inherit;" vertex="1" parent="t662seWFUNlRB6uKf4IR-102">
          <mxGeometry y="52" width="160" height="8" as="geometry" />
        </mxCell>
        <mxCell id="t662seWFUNlRB6uKf4IR-105" value="+ addNewFee(): void&lt;div&gt;+ calcFee(): number&lt;/div&gt;" style="text;strokeColor=none;fillColor=none;align=left;verticalAlign=top;spacingLeft=4;spacingRight=4;overflow=hidden;rotatable=0;points=[[0,0.5],[1,0.5]];portConstraint=eastwest;whiteSpace=wrap;html=1;" vertex="1" parent="t662seWFUNlRB6uKf4IR-102">
          <mxGeometry y="60" width="160" height="50" as="geometry" />
        </mxCell>
        <mxCell id="t662seWFUNlRB6uKf4IR-106" style="edgeStyle=orthogonalEdgeStyle;rounded=0;orthogonalLoop=1;jettySize=auto;html=1;exitX=1;exitY=0.5;exitDx=0;exitDy=0;entryX=0;entryY=0.5;entryDx=0;entryDy=0;" edge="1" parent="1" source="t662seWFUNlRB6uKf4IR-103" target="t662seWFUNlRB6uKf4IR-34">
          <mxGeometry relative="1" as="geometry" />
        </mxCell>
        <mxCell id="t662seWFUNlRB6uKf4IR-107" value="ParkingFloor" style="swimlane;fontStyle=1;align=center;verticalAlign=top;childLayout=stackLayout;horizontal=1;startSize=26;horizontalStack=0;resizeParent=1;resizeParentMax=0;resizeLast=0;collapsible=1;marginBottom=0;whiteSpace=wrap;html=1;" vertex="1" parent="1">
          <mxGeometry x="-250" y="1350" width="160" height="128" as="geometry" />
        </mxCell>
        <mxCell id="t662seWFUNlRB6uKf4IR-108" value="+ id: number" style="text;strokeColor=none;fillColor=none;align=left;verticalAlign=top;spacingLeft=4;spacingRight=4;overflow=hidden;rotatable=0;points=[[0,0.5],[1,0.5]];portConstraint=eastwest;whiteSpace=wrap;html=1;" vertex="1" parent="t662seWFUNlRB6uKf4IR-107">
          <mxGeometry y="26" width="160" height="44" as="geometry" />
        </mxCell>
        <mxCell id="t662seWFUNlRB6uKf4IR-109" value="" style="line;strokeWidth=1;fillColor=none;align=left;verticalAlign=middle;spacingTop=-1;spacingLeft=3;spacingRight=3;rotatable=0;labelPosition=right;points=[];portConstraint=eastwest;strokeColor=inherit;" vertex="1" parent="t662seWFUNlRB6uKf4IR-107">
          <mxGeometry y="70" width="160" height="8" as="geometry" />
        </mxCell>
        <mxCell id="t662seWFUNlRB6uKf4IR-110" value="+ addNewSpot(): void&lt;div&gt;+ isFull(): bool&lt;/div&gt;" style="text;strokeColor=none;fillColor=none;align=left;verticalAlign=top;spacingLeft=4;spacingRight=4;overflow=hidden;rotatable=0;points=[[0,0.5],[1,0.5]];portConstraint=eastwest;whiteSpace=wrap;html=1;" vertex="1" parent="t662seWFUNlRB6uKf4IR-107">
          <mxGeometry y="78" width="160" height="50" as="geometry" />
        </mxCell>
        <mxCell id="t662seWFUNlRB6uKf4IR-112" style="edgeStyle=orthogonalEdgeStyle;rounded=0;orthogonalLoop=1;jettySize=auto;html=1;exitX=0;exitY=0.5;exitDx=0;exitDy=0;entryX=0;entryY=0.5;entryDx=0;entryDy=0;" edge="1" parent="1" source="t662seWFUNlRB6uKf4IR-88" target="t662seWFUNlRB6uKf4IR-108">
          <mxGeometry relative="1" as="geometry">
            <Array as="points">
              <mxPoint x="-350" y="1623" />
              <mxPoint x="-350" y="1389" />
            </Array>
          </mxGeometry>
        </mxCell>
        <mxCell id="t662seWFUNlRB6uKf4IR-113" value="has many" style="edgeLabel;html=1;align=center;verticalAlign=middle;resizable=0;points=[];" vertex="1" connectable="0" parent="t662seWFUNlRB6uKf4IR-112">
          <mxGeometry x="0.023" y="-1" relative="1" as="geometry">
            <mxPoint as="offset" />
          </mxGeometry>
        </mxCell>
        <mxCell id="t662seWFUNlRB6uKf4IR-115" style="edgeStyle=orthogonalEdgeStyle;rounded=0;orthogonalLoop=1;jettySize=auto;html=1;exitX=0;exitY=0.5;exitDx=0;exitDy=0;entryX=0;entryY=0.5;entryDx=0;entryDy=0;" edge="1" parent="1" source="t662seWFUNlRB6uKf4IR-108" target="t662seWFUNlRB6uKf4IR-36">
          <mxGeometry relative="1" as="geometry">
            <Array as="points">
              <mxPoint x="-250" y="1380" />
              <mxPoint x="-330" y="1380" />
              <mxPoint x="-330" y="1219" />
            </Array>
          </mxGeometry>
        </mxCell>
        <mxCell id="t662seWFUNlRB6uKf4IR-116" value="has many" style="text;html=1;align=center;verticalAlign=middle;resizable=0;points=[];autosize=1;strokeColor=none;fillColor=none;" vertex="1" parent="1">
          <mxGeometry x="-360" y="1278" width="80" height="30" as="geometry" />
        </mxCell>
        <mxCell id="t662seWFUNlRB6uKf4IR-117" value="System" style="swimlane;fontStyle=1;align=center;verticalAlign=top;childLayout=stackLayout;horizontal=1;startSize=26;horizontalStack=0;resizeParent=1;resizeParentMax=0;resizeLast=0;collapsible=1;marginBottom=0;whiteSpace=wrap;html=1;" vertex="1" parent="1">
          <mxGeometry x="770" y="910" width="160" height="86" as="geometry" />
        </mxCell>
        <mxCell id="t662seWFUNlRB6uKf4IR-118" value="+ field: type" style="text;strokeColor=none;fillColor=none;align=left;verticalAlign=top;spacingLeft=4;spacingRight=4;overflow=hidden;rotatable=0;points=[[0,0.5],[1,0.5]];portConstraint=eastwest;whiteSpace=wrap;html=1;" vertex="1" parent="t662seWFUNlRB6uKf4IR-117">
          <mxGeometry y="26" width="160" height="26" as="geometry" />
        </mxCell>
        <mxCell id="t662seWFUNlRB6uKf4IR-119" value="" style="line;strokeWidth=1;fillColor=none;align=left;verticalAlign=middle;spacingTop=-1;spacingLeft=3;spacingRight=3;rotatable=0;labelPosition=right;points=[];portConstraint=eastwest;strokeColor=inherit;" vertex="1" parent="t662seWFUNlRB6uKf4IR-117">
          <mxGeometry y="52" width="160" height="8" as="geometry" />
        </mxCell>
        <mxCell id="t662seWFUNlRB6uKf4IR-120" value="+ method(type): type" style="text;strokeColor=none;fillColor=none;align=left;verticalAlign=top;spacingLeft=4;spacingRight=4;overflow=hidden;rotatable=0;points=[[0,0.5],[1,0.5]];portConstraint=eastwest;whiteSpace=wrap;html=1;" vertex="1" parent="t662seWFUNlRB6uKf4IR-117">
          <mxGeometry y="60" width="160" height="26" as="geometry" />
        </mxCell>
        <mxCell id="t662seWFUNlRB6uKf4IR-121" value="Admin" style="swimlane;fontStyle=1;align=center;verticalAlign=top;childLayout=stackLayout;horizontal=1;startSize=26;horizontalStack=0;resizeParent=1;resizeParentMax=0;resizeLast=0;collapsible=1;marginBottom=0;whiteSpace=wrap;html=1;" vertex="1" parent="1">
          <mxGeometry x="770" y="740" width="160" height="86" as="geometry" />
        </mxCell>
        <mxCell id="t662seWFUNlRB6uKf4IR-122" value="+ field: type" style="text;strokeColor=none;fillColor=none;align=left;verticalAlign=top;spacingLeft=4;spacingRight=4;overflow=hidden;rotatable=0;points=[[0,0.5],[1,0.5]];portConstraint=eastwest;whiteSpace=wrap;html=1;" vertex="1" parent="t662seWFUNlRB6uKf4IR-121">
          <mxGeometry y="26" width="160" height="26" as="geometry" />
        </mxCell>
        <mxCell id="t662seWFUNlRB6uKf4IR-123" value="" style="line;strokeWidth=1;fillColor=none;align=left;verticalAlign=middle;spacingTop=-1;spacingLeft=3;spacingRight=3;rotatable=0;labelPosition=right;points=[];portConstraint=eastwest;strokeColor=inherit;" vertex="1" parent="t662seWFUNlRB6uKf4IR-121">
          <mxGeometry y="52" width="160" height="8" as="geometry" />
        </mxCell>
        <mxCell id="t662seWFUNlRB6uKf4IR-124" value="+ method(type): type" style="text;strokeColor=none;fillColor=none;align=left;verticalAlign=top;spacingLeft=4;spacingRight=4;overflow=hidden;rotatable=0;points=[[0,0.5],[1,0.5]];portConstraint=eastwest;whiteSpace=wrap;html=1;" vertex="1" parent="t662seWFUNlRB6uKf4IR-121">
          <mxGeometry y="60" width="160" height="26" as="geometry" />
        </mxCell>
        <mxCell id="t662seWFUNlRB6uKf4IR-126" value="Car" style="swimlane;fontStyle=1;align=center;verticalAlign=middle;childLayout=stackLayout;horizontal=1;startSize=29;horizontalStack=0;resizeParent=1;resizeParentMax=0;resizeLast=0;collapsible=0;marginBottom=0;html=1;whiteSpace=wrap;" vertex="1" parent="1">
          <mxGeometry x="40" y="1550" width="140" height="79" as="geometry" />
        </mxCell>
        <mxCell id="t662seWFUNlRB6uKf4IR-127" value="&amp;lt;&amp;lt;stereotype1&amp;gt;&amp;gt;" style="text;html=1;strokeColor=none;fillColor=none;align=center;verticalAlign=middle;spacingLeft=4;spacingRight=4;overflow=hidden;rotatable=0;points=[[0,0.5],[1,0.5]];portConstraint=eastwest;whiteSpace=wrap;" vertex="1" parent="t662seWFUNlRB6uKf4IR-126">
          <mxGeometry y="29" width="140" height="25" as="geometry" />
        </mxCell>
        <mxCell id="t662seWFUNlRB6uKf4IR-128" value="stereotype property 1" style="text;html=1;strokeColor=none;fillColor=none;align=left;verticalAlign=middle;spacingLeft=4;spacingRight=4;overflow=hidden;rotatable=0;points=[[0,0.5],[1,0.5]];portConstraint=eastwest;whiteSpace=wrap;" vertex="1" parent="t662seWFUNlRB6uKf4IR-126">
          <mxGeometry y="54" width="140" height="25" as="geometry" />
        </mxCell>
        <mxCell id="t662seWFUNlRB6uKf4IR-129" style="edgeStyle=orthogonalEdgeStyle;rounded=0;orthogonalLoop=1;jettySize=auto;html=1;exitX=0.5;exitY=0;exitDx=0;exitDy=0;entryX=0.444;entryY=1.038;entryDx=0;entryDy=0;entryPerimeter=0;" edge="1" parent="1" source="t662seWFUNlRB6uKf4IR-126" target="t662seWFUNlRB6uKf4IR-75">
          <mxGeometry relative="1" as="geometry" />
        </mxCell>
        <mxCell id="t662seWFUNlRB6uKf4IR-130" value="extends" style="text;html=1;align=center;verticalAlign=middle;resizable=0;points=[];autosize=1;strokeColor=none;fillColor=none;" vertex="1" parent="1">
          <mxGeometry x="95" y="1498" width="70" height="30" as="geometry" />
        </mxCell>
        <mxCell id="t662seWFUNlRB6uKf4IR-134" style="edgeStyle=orthogonalEdgeStyle;rounded=0;orthogonalLoop=1;jettySize=auto;html=1;exitX=0.5;exitY=0;exitDx=0;exitDy=0;" edge="1" parent="1" source="t662seWFUNlRB6uKf4IR-131">
          <mxGeometry relative="1" as="geometry">
            <mxPoint x="170" y="1490" as="targetPoint" />
          </mxGeometry>
        </mxCell>
        <mxCell id="t662seWFUNlRB6uKf4IR-131" value="Motobike" style="swimlane;fontStyle=1;align=center;verticalAlign=middle;childLayout=stackLayout;horizontal=1;startSize=29;horizontalStack=0;resizeParent=1;resizeParentMax=0;resizeLast=0;collapsible=0;marginBottom=0;html=1;whiteSpace=wrap;" vertex="1" parent="1">
          <mxGeometry x="190" y="1550" width="140" height="79" as="geometry" />
        </mxCell>
        <mxCell id="t662seWFUNlRB6uKf4IR-132" value="&amp;lt;&amp;lt;stereotype1&amp;gt;&amp;gt;" style="text;html=1;strokeColor=none;fillColor=none;align=center;verticalAlign=middle;spacingLeft=4;spacingRight=4;overflow=hidden;rotatable=0;points=[[0,0.5],[1,0.5]];portConstraint=eastwest;whiteSpace=wrap;" vertex="1" parent="t662seWFUNlRB6uKf4IR-131">
          <mxGeometry y="29" width="140" height="25" as="geometry" />
        </mxCell>
        <mxCell id="t662seWFUNlRB6uKf4IR-133" value="stereotype property 1" style="text;html=1;strokeColor=none;fillColor=none;align=left;verticalAlign=middle;spacingLeft=4;spacingRight=4;overflow=hidden;rotatable=0;points=[[0,0.5],[1,0.5]];portConstraint=eastwest;whiteSpace=wrap;" vertex="1" parent="t662seWFUNlRB6uKf4IR-131">
          <mxGeometry y="54" width="140" height="25" as="geometry" />
        </mxCell>
        <mxCell id="t662seWFUNlRB6uKf4IR-136" value="Bicyle" style="swimlane;fontStyle=1;align=center;verticalAlign=middle;childLayout=stackLayout;horizontal=1;startSize=29;horizontalStack=0;resizeParent=1;resizeParentMax=0;resizeLast=0;collapsible=0;marginBottom=0;html=1;whiteSpace=wrap;" vertex="1" parent="1">
          <mxGeometry x="40" y="1660" width="140" height="79" as="geometry" />
        </mxCell>
        <mxCell id="t662seWFUNlRB6uKf4IR-137" value="&amp;lt;&amp;lt;stereotype1&amp;gt;&amp;gt;" style="text;html=1;strokeColor=none;fillColor=none;align=center;verticalAlign=middle;spacingLeft=4;spacingRight=4;overflow=hidden;rotatable=0;points=[[0,0.5],[1,0.5]];portConstraint=eastwest;whiteSpace=wrap;" vertex="1" parent="t662seWFUNlRB6uKf4IR-136">
          <mxGeometry y="29" width="140" height="25" as="geometry" />
        </mxCell>
        <mxCell id="t662seWFUNlRB6uKf4IR-138" value="stereotype property 1" style="text;html=1;strokeColor=none;fillColor=none;align=left;verticalAlign=middle;spacingLeft=4;spacingRight=4;overflow=hidden;rotatable=0;points=[[0,0.5],[1,0.5]];portConstraint=eastwest;whiteSpace=wrap;" vertex="1" parent="t662seWFUNlRB6uKf4IR-136">
          <mxGeometry y="54" width="140" height="25" as="geometry" />
        </mxCell>
        <mxCell id="t662seWFUNlRB6uKf4IR-139" value="Van" style="swimlane;fontStyle=1;align=center;verticalAlign=middle;childLayout=stackLayout;horizontal=1;startSize=29;horizontalStack=0;resizeParent=1;resizeParentMax=0;resizeLast=0;collapsible=0;marginBottom=0;html=1;whiteSpace=wrap;" vertex="1" parent="1">
          <mxGeometry x="190" y="1660" width="140" height="79" as="geometry" />
        </mxCell>
        <mxCell id="t662seWFUNlRB6uKf4IR-140" value="&amp;lt;&amp;lt;stereotype1&amp;gt;&amp;gt;" style="text;html=1;strokeColor=none;fillColor=none;align=center;verticalAlign=middle;spacingLeft=4;spacingRight=4;overflow=hidden;rotatable=0;points=[[0,0.5],[1,0.5]];portConstraint=eastwest;whiteSpace=wrap;" vertex="1" parent="t662seWFUNlRB6uKf4IR-139">
          <mxGeometry y="29" width="140" height="25" as="geometry" />
        </mxCell>
        <mxCell id="t662seWFUNlRB6uKf4IR-141" value="stereotype property 1" style="text;html=1;strokeColor=none;fillColor=none;align=left;verticalAlign=middle;spacingLeft=4;spacingRight=4;overflow=hidden;rotatable=0;points=[[0,0.5],[1,0.5]];portConstraint=eastwest;whiteSpace=wrap;" vertex="1" parent="t662seWFUNlRB6uKf4IR-139">
          <mxGeometry y="54" width="140" height="25" as="geometry" />
        </mxCell>
        <mxCell id="t662seWFUNlRB6uKf4IR-142" style="edgeStyle=orthogonalEdgeStyle;rounded=0;orthogonalLoop=1;jettySize=auto;html=1;exitX=1;exitY=0.25;exitDx=0;exitDy=0;entryX=0.981;entryY=0.865;entryDx=0;entryDy=0;entryPerimeter=0;" edge="1" parent="1" source="t662seWFUNlRB6uKf4IR-139" target="t662seWFUNlRB6uKf4IR-73">
          <mxGeometry relative="1" as="geometry" />
        </mxCell>
        <mxCell id="t662seWFUNlRB6uKf4IR-143" style="edgeStyle=orthogonalEdgeStyle;rounded=0;orthogonalLoop=1;jettySize=auto;html=1;exitX=0;exitY=0.5;exitDx=0;exitDy=0;entryX=-0.012;entryY=0.811;entryDx=0;entryDy=0;entryPerimeter=0;" edge="1" parent="1" source="t662seWFUNlRB6uKf4IR-137" target="t662seWFUNlRB6uKf4IR-73">
          <mxGeometry relative="1" as="geometry" />
        </mxCell>
        <mxCell id="t662seWFUNlRB6uKf4IR-154" value="FeePerHour" style="swimlane;fontStyle=1;align=center;verticalAlign=top;childLayout=stackLayout;horizontal=1;startSize=26;horizontalStack=0;resizeParent=1;resizeParentMax=0;resizeLast=0;collapsible=1;marginBottom=0;whiteSpace=wrap;html=1;" vertex="1" parent="1">
          <mxGeometry x="-810" y="980" width="160" height="124" as="geometry" />
        </mxCell>
        <mxCell id="t662seWFUNlRB6uKf4IR-155" value="+ id: numer&lt;div&gt;+ vehicle_type: VehicleType&lt;br&gt;&lt;div&gt;+ hour: number&lt;/div&gt;&lt;div&gt;+ amount: number&lt;/div&gt;&lt;/div&gt;" style="text;strokeColor=none;fillColor=none;align=left;verticalAlign=top;spacingLeft=4;spacingRight=4;overflow=hidden;rotatable=0;points=[[0,0.5],[1,0.5]];portConstraint=eastwest;whiteSpace=wrap;html=1;" vertex="1" parent="t662seWFUNlRB6uKf4IR-154">
          <mxGeometry y="26" width="160" height="64" as="geometry" />
        </mxCell>
        <mxCell id="t662seWFUNlRB6uKf4IR-156" value="" style="line;strokeWidth=1;fillColor=none;align=left;verticalAlign=middle;spacingTop=-1;spacingLeft=3;spacingRight=3;rotatable=0;labelPosition=right;points=[];portConstraint=eastwest;strokeColor=inherit;" vertex="1" parent="t662seWFUNlRB6uKf4IR-154">
          <mxGeometry y="90" width="160" height="8" as="geometry" />
        </mxCell>
        <mxCell id="t662seWFUNlRB6uKf4IR-157" value="+ calcFee(): number" style="text;strokeColor=none;fillColor=none;align=left;verticalAlign=top;spacingLeft=4;spacingRight=4;overflow=hidden;rotatable=0;points=[[0,0.5],[1,0.5]];portConstraint=eastwest;whiteSpace=wrap;html=1;" vertex="1" parent="t662seWFUNlRB6uKf4IR-154">
          <mxGeometry y="98" width="160" height="26" as="geometry" />
        </mxCell>
        <mxCell id="t662seWFUNlRB6uKf4IR-158" value="FeePerDay" style="swimlane;fontStyle=1;align=center;verticalAlign=top;childLayout=stackLayout;horizontal=1;startSize=26;horizontalStack=0;resizeParent=1;resizeParentMax=0;resizeLast=0;collapsible=1;marginBottom=0;whiteSpace=wrap;html=1;" vertex="1" parent="1">
          <mxGeometry x="-810" y="1136" width="160" height="124" as="geometry" />
        </mxCell>
        <mxCell id="t662seWFUNlRB6uKf4IR-159" value="+ id: numer&lt;div&gt;+ vehicle_type: VehicleType&lt;br&gt;&lt;div&gt;+ hour: number&lt;/div&gt;&lt;div&gt;+ amount: number&lt;/div&gt;&lt;/div&gt;" style="text;strokeColor=none;fillColor=none;align=left;verticalAlign=top;spacingLeft=4;spacingRight=4;overflow=hidden;rotatable=0;points=[[0,0.5],[1,0.5]];portConstraint=eastwest;whiteSpace=wrap;html=1;" vertex="1" parent="t662seWFUNlRB6uKf4IR-158">
          <mxGeometry y="26" width="160" height="64" as="geometry" />
        </mxCell>
        <mxCell id="t662seWFUNlRB6uKf4IR-160" value="" style="line;strokeWidth=1;fillColor=none;align=left;verticalAlign=middle;spacingTop=-1;spacingLeft=3;spacingRight=3;rotatable=0;labelPosition=right;points=[];portConstraint=eastwest;strokeColor=inherit;" vertex="1" parent="t662seWFUNlRB6uKf4IR-158">
          <mxGeometry y="90" width="160" height="8" as="geometry" />
        </mxCell>
        <mxCell id="t662seWFUNlRB6uKf4IR-161" value="+ calcFee(): number" style="text;strokeColor=none;fillColor=none;align=left;verticalAlign=top;spacingLeft=4;spacingRight=4;overflow=hidden;rotatable=0;points=[[0,0.5],[1,0.5]];portConstraint=eastwest;whiteSpace=wrap;html=1;" vertex="1" parent="t662seWFUNlRB6uKf4IR-158">
          <mxGeometry y="98" width="160" height="26" as="geometry" />
        </mxCell>
        <mxCell id="t662seWFUNlRB6uKf4IR-162" style="edgeStyle=orthogonalEdgeStyle;rounded=0;orthogonalLoop=1;jettySize=auto;html=1;exitX=1;exitY=0.5;exitDx=0;exitDy=0;entryX=0;entryY=0.5;entryDx=0;entryDy=0;" edge="1" parent="1" source="t662seWFUNlRB6uKf4IR-155" target="t662seWFUNlRB6uKf4IR-103">
          <mxGeometry relative="1" as="geometry" />
        </mxCell>
        <mxCell id="t662seWFUNlRB6uKf4IR-163" style="edgeStyle=orthogonalEdgeStyle;rounded=0;orthogonalLoop=1;jettySize=auto;html=1;exitX=1;exitY=0.5;exitDx=0;exitDy=0;entryX=0;entryY=0.5;entryDx=0;entryDy=0;" edge="1" parent="1" source="t662seWFUNlRB6uKf4IR-159" target="t662seWFUNlRB6uKf4IR-103">
          <mxGeometry relative="1" as="geometry" />
        </mxCell>
        <mxCell id="t662seWFUNlRB6uKf4IR-164" value="EntrancePanel" style="swimlane;fontStyle=1;align=center;verticalAlign=top;childLayout=stackLayout;horizontal=1;startSize=26;horizontalStack=0;resizeParent=1;resizeParentMax=0;resizeLast=0;collapsible=1;marginBottom=0;whiteSpace=wrap;html=1;" vertex="1" parent="1">
          <mxGeometry x="110" y="794" width="160" height="86" as="geometry" />
        </mxCell>
        <mxCell id="t662seWFUNlRB6uKf4IR-165" value="+ field: type" style="text;strokeColor=none;fillColor=none;align=left;verticalAlign=top;spacingLeft=4;spacingRight=4;overflow=hidden;rotatable=0;points=[[0,0.5],[1,0.5]];portConstraint=eastwest;whiteSpace=wrap;html=1;" vertex="1" parent="t662seWFUNlRB6uKf4IR-164">
          <mxGeometry y="26" width="160" height="26" as="geometry" />
        </mxCell>
        <mxCell id="t662seWFUNlRB6uKf4IR-166" value="" style="line;strokeWidth=1;fillColor=none;align=left;verticalAlign=middle;spacingTop=-1;spacingLeft=3;spacingRight=3;rotatable=0;labelPosition=right;points=[];portConstraint=eastwest;strokeColor=inherit;" vertex="1" parent="t662seWFUNlRB6uKf4IR-164">
          <mxGeometry y="52" width="160" height="8" as="geometry" />
        </mxCell>
        <mxCell id="t662seWFUNlRB6uKf4IR-167" value="+ method(type): type" style="text;strokeColor=none;fillColor=none;align=left;verticalAlign=top;spacingLeft=4;spacingRight=4;overflow=hidden;rotatable=0;points=[[0,0.5],[1,0.5]];portConstraint=eastwest;whiteSpace=wrap;html=1;" vertex="1" parent="t662seWFUNlRB6uKf4IR-164">
          <mxGeometry y="60" width="160" height="26" as="geometry" />
        </mxCell>
        <mxCell id="t662seWFUNlRB6uKf4IR-168" value="ExitPanel" style="swimlane;fontStyle=1;align=center;verticalAlign=top;childLayout=stackLayout;horizontal=1;startSize=26;horizontalStack=0;resizeParent=1;resizeParentMax=0;resizeLast=0;collapsible=1;marginBottom=0;whiteSpace=wrap;html=1;" vertex="1" parent="1">
          <mxGeometry x="110" y="948" width="160" height="110" as="geometry" />
        </mxCell>
        <mxCell id="t662seWFUNlRB6uKf4IR-174" style="edgeStyle=orthogonalEdgeStyle;rounded=0;orthogonalLoop=1;jettySize=auto;html=1;exitX=1;exitY=0.5;exitDx=0;exitDy=0;" edge="1" parent="t662seWFUNlRB6uKf4IR-168" source="t662seWFUNlRB6uKf4IR-169">
          <mxGeometry relative="1" as="geometry">
            <mxPoint x="520" y="312" as="targetPoint" />
          </mxGeometry>
        </mxCell>
        <mxCell id="t662seWFUNlRB6uKf4IR-169" value="+ field: type" style="text;strokeColor=none;fillColor=none;align=left;verticalAlign=top;spacingLeft=4;spacingRight=4;overflow=hidden;rotatable=0;points=[[0,0.5],[1,0.5]];portConstraint=eastwest;whiteSpace=wrap;html=1;" vertex="1" parent="t662seWFUNlRB6uKf4IR-168">
          <mxGeometry y="26" width="160" height="26" as="geometry" />
        </mxCell>
        <mxCell id="t662seWFUNlRB6uKf4IR-170" value="" style="line;strokeWidth=1;fillColor=none;align=left;verticalAlign=middle;spacingTop=-1;spacingLeft=3;spacingRight=3;rotatable=0;labelPosition=right;points=[];portConstraint=eastwest;strokeColor=inherit;" vertex="1" parent="t662seWFUNlRB6uKf4IR-168">
          <mxGeometry y="52" width="160" height="8" as="geometry" />
        </mxCell>
        <mxCell id="t662seWFUNlRB6uKf4IR-171" value="+ scanTicket(): void&lt;br&gt;+ payment(): void" style="text;strokeColor=none;fillColor=none;align=left;verticalAlign=top;spacingLeft=4;spacingRight=4;overflow=hidden;rotatable=0;points=[[0,0.5],[1,0.5]];portConstraint=eastwest;whiteSpace=wrap;html=1;" vertex="1" parent="t662seWFUNlRB6uKf4IR-168">
          <mxGeometry y="60" width="160" height="50" as="geometry" />
        </mxCell>
        <mxCell id="t662seWFUNlRB6uKf4IR-173" style="edgeStyle=orthogonalEdgeStyle;rounded=0;orthogonalLoop=1;jettySize=auto;html=1;exitX=1;exitY=0.5;exitDx=0;exitDy=0;entryX=1;entryY=0;entryDx=0;entryDy=0;" edge="1" parent="1" source="t662seWFUNlRB6uKf4IR-165" target="t662seWFUNlRB6uKf4IR-76">
          <mxGeometry relative="1" as="geometry">
            <Array as="points">
              <mxPoint x="660" y="833" />
              <mxPoint x="660" y="1260" />
            </Array>
          </mxGeometry>
        </mxCell>
        <mxCell id="t662seWFUNlRB6uKf4IR-175" value="CardTrans" style="swimlane;fontStyle=1;align=center;verticalAlign=top;childLayout=stackLayout;horizontal=1;startSize=26;horizontalStack=0;resizeParent=1;resizeParentMax=0;resizeLast=0;collapsible=1;marginBottom=0;whiteSpace=wrap;html=1;" vertex="1" parent="1">
          <mxGeometry x="830" y="1540" width="160" height="78" as="geometry" />
        </mxCell>
        <mxCell id="t662seWFUNlRB6uKf4IR-176" value="+ id: number&lt;div&gt;+ nameOnCard: string&lt;br&gt;+ amount: number&lt;/div&gt;" style="text;strokeColor=none;fillColor=none;align=left;verticalAlign=top;spacingLeft=4;spacingRight=4;overflow=hidden;rotatable=0;points=[[0,0.5],[1,0.5]];portConstraint=eastwest;whiteSpace=wrap;html=1;" vertex="1" parent="t662seWFUNlRB6uKf4IR-175">
          <mxGeometry y="26" width="160" height="44" as="geometry" />
        </mxCell>
        <mxCell id="t662seWFUNlRB6uKf4IR-177" value="" style="line;strokeWidth=1;fillColor=none;align=left;verticalAlign=middle;spacingTop=-1;spacingLeft=3;spacingRight=3;rotatable=0;labelPosition=right;points=[];portConstraint=eastwest;strokeColor=inherit;" vertex="1" parent="t662seWFUNlRB6uKf4IR-175">
          <mxGeometry y="70" width="160" height="8" as="geometry" />
        </mxCell>
        <mxCell id="t662seWFUNlRB6uKf4IR-179" value="CashTrans" style="swimlane;fontStyle=1;align=center;verticalAlign=top;childLayout=stackLayout;horizontal=1;startSize=26;horizontalStack=0;resizeParent=1;resizeParentMax=0;resizeLast=0;collapsible=1;marginBottom=0;whiteSpace=wrap;html=1;" vertex="1" parent="1">
          <mxGeometry x="830" y="1661" width="160" height="78" as="geometry" />
        </mxCell>
        <mxCell id="t662seWFUNlRB6uKf4IR-180" value="+ id: number&lt;div&gt;+ amount: string&lt;/div&gt;" style="text;strokeColor=none;fillColor=none;align=left;verticalAlign=top;spacingLeft=4;spacingRight=4;overflow=hidden;rotatable=0;points=[[0,0.5],[1,0.5]];portConstraint=eastwest;whiteSpace=wrap;html=1;" vertex="1" parent="t662seWFUNlRB6uKf4IR-179">
          <mxGeometry y="26" width="160" height="44" as="geometry" />
        </mxCell>
        <mxCell id="t662seWFUNlRB6uKf4IR-181" value="" style="line;strokeWidth=1;fillColor=none;align=left;verticalAlign=middle;spacingTop=-1;spacingLeft=3;spacingRight=3;rotatable=0;labelPosition=right;points=[];portConstraint=eastwest;strokeColor=inherit;" vertex="1" parent="t662seWFUNlRB6uKf4IR-179">
          <mxGeometry y="70" width="160" height="8" as="geometry" />
        </mxCell>
        <mxCell id="t662seWFUNlRB6uKf4IR-183" style="edgeStyle=orthogonalEdgeStyle;rounded=0;orthogonalLoop=1;jettySize=auto;html=1;exitX=0;exitY=0.5;exitDx=0;exitDy=0;entryX=1;entryY=0.5;entryDx=0;entryDy=0;" edge="1" parent="1" source="t662seWFUNlRB6uKf4IR-176" target="t662seWFUNlRB6uKf4IR-83">
          <mxGeometry relative="1" as="geometry" />
        </mxCell>
        <mxCell id="t662seWFUNlRB6uKf4IR-184" style="edgeStyle=orthogonalEdgeStyle;rounded=0;orthogonalLoop=1;jettySize=auto;html=1;exitX=0;exitY=0.5;exitDx=0;exitDy=0;entryX=1;entryY=0.5;entryDx=0;entryDy=0;" edge="1" parent="1" source="t662seWFUNlRB6uKf4IR-180" target="t662seWFUNlRB6uKf4IR-83">
          <mxGeometry relative="1" as="geometry" />
        </mxCell>
      </root>
    </mxGraphModel>
  </diagram>
</mxfile>
